<?xml version="1.0" encoding="UTF-8"?>
<svg xmlns="http://www.w3.org/2000/svg" xmlns:xlink="http://www.w3.org/1999/xlink" viewBox="0 0 29.82 30.39">
  <defs>
    <style>
      .cls-1 {
        fill: url(#linear-gradient);
      }

      .cls-2 {
        fill: #fff200;
      }

      .cls-3 {
        fill: #c2b59b;
      }

      .cls-4 {
        fill: #545554;
      }

      .cls-5 {
        fill: #754c29;
      }

      .cls-6 {
        fill: #262262;
      }

      .cls-7 {
        fill: url(#Orange_Yellow);
      }

      .cls-8 {
        mix-blend-mode: multiply;
      }

      .cls-9 {
        opacity: .33;
      }

      .cls-10 {
        isolation: isolate;
      }

      .cls-11 {
        fill: url(#Orange_Yellow-4);
      }

      .cls-12 {
        fill: url(#Orange_Yellow-2);
      }

      .cls-13 {
        fill: url(#Orange_Yellow-3);
      }

      .cls-14 {
        fill: url(#Orange_Yellow-5);
      }

      .cls-15 {
        fill: url(#Orange_Yellow-7);
      }

      .cls-16 {
        fill: url(#Orange_Yellow-6);
      }

      .cls-17 {
        fill: url(#Orange_Yellow-8);
      }
    </style>
    <linearGradient id="linear-gradient" x1="13.1" y1="24.77" x2="29.8" y2="24.77" gradientUnits="userSpaceOnUse">
      <stop offset=".22" stop-color="#fff"/>
      <stop offset=".3" stop-color="#d4d3d3"/>
      <stop offset=".4" stop-color="#9e9c9d"/>
      <stop offset=".51" stop-color="#726f70"/>
      <stop offset=".61" stop-color="#4f4c4d"/>
      <stop offset=".7" stop-color="#373334"/>
      <stop offset=".79" stop-color="#282425"/>
      <stop offset=".86" stop-color="#231f20"/>
    </linearGradient>
    <linearGradient id="Orange_Yellow" data-name="Orange, Yellow" x1="7.86" y1="6.83" x2="21.29" y2="6.83" gradientUnits="userSpaceOnUse">
      <stop offset="0" stop-color="#fff33b"/>
      <stop offset=".04" stop-color="#fee62d"/>
      <stop offset=".12" stop-color="#fdd51b"/>
      <stop offset=".2" stop-color="#fdca0f"/>
      <stop offset=".28" stop-color="#fdc70c"/>
      <stop offset=".67" stop-color="#f3903f"/>
      <stop offset=".89" stop-color="#ed683c"/>
      <stop offset="1" stop-color="#e93e3a"/>
    </linearGradient>
    <linearGradient id="Orange_Yellow-2" data-name="Orange, Yellow" x1="15.69" y1="5.45" x2="20.23" y2="5.45" xlink:href="#Orange_Yellow"/>
    <linearGradient id="Orange_Yellow-3" data-name="Orange, Yellow" x1="9.08" y1="5.45" x2="13.62" y2="5.45" xlink:href="#Orange_Yellow"/>
    <linearGradient id="Orange_Yellow-4" data-name="Orange, Yellow" x1="15.69" y1="4.42" x2="20.23" y2="4.42" xlink:href="#Orange_Yellow"/>
    <linearGradient id="Orange_Yellow-5" data-name="Orange, Yellow" x1="9.08" y1="4.42" x2="13.62" y2="4.42" xlink:href="#Orange_Yellow"/>
    <linearGradient id="Orange_Yellow-6" data-name="Orange, Yellow" x1="10.51" y1="4.05" x2="12.18" y2="4.05" gradientTransform="translate(15.39 -7.3) rotate(90)" xlink:href="#Orange_Yellow"/>
    <linearGradient id="Orange_Yellow-7" data-name="Orange, Yellow" x1="17.12" y1="4.05" x2="18.8" y2="4.05" gradientTransform="translate(22.01 -13.91) rotate(90)" xlink:href="#Orange_Yellow"/>
    <linearGradient id="Orange_Yellow-8" data-name="Orange, Yellow" y1="15.68" y2="15.68" xlink:href="#Orange_Yellow"/>
  </defs>
  <g class="cls-10">
    <g id="Layer_2" data-name="Layer 2">
      <g id="Layer_1-2" data-name="Layer 1">
        <g>
          <g class="cls-9">
            <g class="cls-8">
              <path class="cls-4" d="M14.58,30.39l-1.45-4.73h0c1.07-2.18,8.88-4.71,12.87-4.5h0c4,.2,5.46,2.8,1.45,4.73h0s-12.87,4.5-12.87,4.5Z"/>
            </g>
            <path class="cls-1" d="M14.58,29.39l-1.45-4.73h0c1.07-2.18,8.88-4.71,12.87-4.5h0c4,.2,5.46,2.8,1.45,4.73h0s-12.87,4.5-12.87,4.5Z"/>
          </g>
          <path class="cls-3" d="M14.68,29.53L1.99,14.77h0C-3.66,8.2,3.4,0,14.68,0h0c11.28,0,18.33,8.2,12.69,14.77h0s-12.69,14.77-12.69,14.77Z"/>
          <ellipse class="cls-5" cx="14.69" cy="9.78" rx="13.42" ry="8.51"/>
          <g>
            <rect class="cls-6" x="8.37" y="6.7" width="12.41" height="8.52"/>
            <rect class="cls-7" x="7.86" y="6.12" width="13.43" height="1.42" rx=".6" ry=".6"/>
            <rect class="cls-12" x="15.69" y="4.97" width="4.54" height=".95" rx=".28" ry=".28"/>
            <rect class="cls-13" x="9.08" y="4.97" width="4.54" height=".95" rx=".28" ry=".28"/>
            <rect class="cls-11" x="15.69" y="4.05" width="4.54" height=".73" rx=".37" ry=".37"/>
            <rect class="cls-14" x="9.08" y="4.05" width="4.54" height=".73" rx=".37" ry=".37"/>
            <rect class="cls-16" x="10.67" y="3.21" width="1.35" height="1.68" rx=".39" ry=".39" transform="translate(7.3 15.39) rotate(-90)"/>
            <rect class="cls-15" x="17.29" y="3.21" width="1.35" height="1.68" rx=".39" ry=".39" transform="translate(13.91 22.01) rotate(-90)"/>
            <path class="cls-2" d="M18.14,7.54l-7.12,3.23s1.02,0,2.29,0-2.29,3.23-2.29,3.23l4.52-2.05,2.6-1.18s-1.21,0-2.64,0,2.64-3.23,2.64-3.23Z"/>
            <rect class="cls-17" x="7.86" y="14.97" width="13.43" height="1.42" rx=".6" ry=".6"/>
          </g>
        </g>
      </g>
    </g>
  </g>
</svg>